<svg xmlns="http://www.w3.org/2000/svg" viewBox="0 0 360 520" role="img"><defs><linearGradient id="b" x1="0" y1="0" x2="1" y2="1"><stop stop-color="#c59631"/><stop offset="1" stop-color="#273447"/></linearGradient><linearGradient id="s" x1="0" y1="0" x2="1" y2="1"><stop stop-color="#101b3d"/><stop offset=".5" stop-color="#3477ff"/><stop offset="1" stop-color="#55d8ff"/></linearGradient></defs><ellipse cx="180" cy="475" rx="118" ry="25" fill="#07111f" opacity=".15"/><g transform="translate(25 9) rotate(-7 150 240)"><rect x="22" y="22" width="178" height="410" rx="34" fill="url(#b)" stroke="#111a26" stroke-width="8"/><rect x="53" y="58" width="77" height="77" rx="18" fill="#24303d"/><circle cx="76" cy="81" r="14" fill="#05080d"/><circle cx="108" cy="111" r="14" fill="#05080d"/><text x="111" y="390" text-anchor="middle" font-family="Arial" font-size="13" font-weight="700" fill="white" opacity=".7">NOTE 40</text></g><g transform="translate(155 44) rotate(8 90 210)"><rect x="0" y="0" width="178" height="410" rx="34" fill="#0b111b" stroke="#111a26" stroke-width="8"/><rect x="9" y="9" width="160" height="392" rx="27" fill="url(#s)"/><rect x="62" y="17" width="55" height="16" rx="9" fill="#04070c"/><circle cx="130" cy="95" r="52" fill="none" stroke="white" stroke-opacity=".28" stroke-width="2"/><circle cx="62" cy="292" r="76" fill="#50d7ff" opacity=".18"/><text x="89" y="221" text-anchor="middle" font-family="Arial" font-size="15" font-weight="800" fill="white">NOTE 40</text></g></svg>
